<mxfile host="app.diagrams.net" modified="2023-09-28T19:20:26.629Z" agent="Mozilla/5.0 (X11; Linux x86_64; rv:109.0) Gecko/20100101 Firefox/114.0" etag="rJ2nx4IFu8xp-MlhTvWY" version="21.8.2" type="github">
  <diagram name="PÃ¡gina-1" id="jzt9VuSJutz7xsv2cdAf">
    <mxGraphModel dx="1761" dy="818" grid="1" gridSize="10" guides="1" tooltips="1" connect="1" arrows="1" fold="1" page="1" pageScale="1" pageWidth="827" pageHeight="1169" math="0" shadow="0">
      <root>
        <mxCell id="0" />
        <mxCell id="1" parent="0" />
        <mxCell id="pSZyWVPSI68-gmUVEjRg-7" style="edgeStyle=orthogonalEdgeStyle;rounded=0;orthogonalLoop=1;jettySize=auto;html=1;entryX=0;entryY=0.5;entryDx=0;entryDy=0;endArrow=none;endFill=0;" edge="1" parent="1" source="pSZyWVPSI68-gmUVEjRg-5" target="pSZyWVPSI68-gmUVEjRg-3">
          <mxGeometry relative="1" as="geometry" />
        </mxCell>
        <mxCell id="pSZyWVPSI68-gmUVEjRg-1" value="&lt;div&gt;Modulo&lt;br&gt;&lt;/div&gt;" style="rounded=0;whiteSpace=wrap;html=1;fillColor=#d0cee2;strokeColor=#56517e;" vertex="1" parent="1">
          <mxGeometry x="350" y="330" width="120" height="60" as="geometry" />
        </mxCell>
        <mxCell id="pSZyWVPSI68-gmUVEjRg-6" style="edgeStyle=orthogonalEdgeStyle;rounded=0;orthogonalLoop=1;jettySize=auto;html=1;endArrow=none;endFill=0;" edge="1" parent="1" source="pSZyWVPSI68-gmUVEjRg-4" target="pSZyWVPSI68-gmUVEjRg-1">
          <mxGeometry relative="1" as="geometry" />
        </mxCell>
        <mxCell id="pSZyWVPSI68-gmUVEjRg-2" value="Profesor" style="rounded=0;whiteSpace=wrap;html=1;fillColor=#d0cee2;strokeColor=#56517e;" vertex="1" parent="1">
          <mxGeometry x="10" y="330" width="120" height="60" as="geometry" />
        </mxCell>
        <mxCell id="pSZyWVPSI68-gmUVEjRg-3" value="Alumnos" style="rounded=0;whiteSpace=wrap;html=1;fillColor=#d0cee2;strokeColor=#56517e;" vertex="1" parent="1">
          <mxGeometry x="700" y="330" width="120" height="60" as="geometry" />
        </mxCell>
        <mxCell id="pSZyWVPSI68-gmUVEjRg-10" value="Nombre" style="ellipse;whiteSpace=wrap;html=1;align=center;" vertex="1" parent="1">
          <mxGeometry x="-10" y="220" width="90" height="30" as="geometry" />
        </mxCell>
        <mxCell id="pSZyWVPSI68-gmUVEjRg-11" value="Direccion" style="ellipse;whiteSpace=wrap;html=1;align=center;" vertex="1" parent="1">
          <mxGeometry x="30" y="180" width="100" height="40" as="geometry" />
        </mxCell>
        <mxCell id="pSZyWVPSI68-gmUVEjRg-12" value="Tlf" style="ellipse;whiteSpace=wrap;html=1;align=center;" vertex="1" parent="1">
          <mxGeometry x="80" y="220" width="80" height="30" as="geometry" />
        </mxCell>
        <mxCell id="pSZyWVPSI68-gmUVEjRg-13" value="DNI" style="ellipse;whiteSpace=wrap;html=1;align=center;fontStyle=4;" vertex="1" parent="1">
          <mxGeometry x="35" y="250" width="70" height="20" as="geometry" />
        </mxCell>
        <mxCell id="pSZyWVPSI68-gmUVEjRg-14" value="Codigo" style="ellipse;whiteSpace=wrap;html=1;align=center;fontStyle=4;" vertex="1" parent="1">
          <mxGeometry x="365" y="245" width="90" height="30" as="geometry" />
        </mxCell>
        <mxCell id="pSZyWVPSI68-gmUVEjRg-15" value="Nombre" style="ellipse;whiteSpace=wrap;html=1;align=center;" vertex="1" parent="1">
          <mxGeometry x="370" y="210" width="80" height="30" as="geometry" />
        </mxCell>
        <mxCell id="pSZyWVPSI68-gmUVEjRg-17" value="N Expediente" style="ellipse;whiteSpace=wrap;html=1;align=center;" vertex="1" parent="1">
          <mxGeometry x="710" y="220" width="100" height="40" as="geometry" />
        </mxCell>
        <mxCell id="pSZyWVPSI68-gmUVEjRg-18" value="Nombre" style="ellipse;whiteSpace=wrap;html=1;align=center;" vertex="1" parent="1">
          <mxGeometry x="670" y="260" width="80" height="35" as="geometry" />
        </mxCell>
        <mxCell id="pSZyWVPSI68-gmUVEjRg-19" value="Apellidos" style="ellipse;whiteSpace=wrap;html=1;align=center;" vertex="1" parent="1">
          <mxGeometry x="750" y="260" width="100" height="40" as="geometry" />
        </mxCell>
        <mxCell id="pSZyWVPSI68-gmUVEjRg-20" value="" style="edgeStyle=orthogonalEdgeStyle;rounded=0;orthogonalLoop=1;jettySize=auto;html=1;endArrow=none;endFill=0;" edge="1" parent="1" source="pSZyWVPSI68-gmUVEjRg-2" target="pSZyWVPSI68-gmUVEjRg-4">
          <mxGeometry relative="1" as="geometry">
            <mxPoint x="130" y="360" as="sourcePoint" />
            <mxPoint x="350" y="360" as="targetPoint" />
          </mxGeometry>
        </mxCell>
        <mxCell id="pSZyWVPSI68-gmUVEjRg-4" value="Imparten" style="rhombus;whiteSpace=wrap;html=1;fillColor=#fad7ac;strokeColor=#b46504;" vertex="1" parent="1">
          <mxGeometry x="190" y="320" width="80" height="80" as="geometry" />
        </mxCell>
        <mxCell id="pSZyWVPSI68-gmUVEjRg-21" value="1 : n" style="text;html=1;strokeColor=none;fillColor=none;align=center;verticalAlign=middle;whiteSpace=wrap;rounded=0;" vertex="1" parent="1">
          <mxGeometry x="280" y="340" width="60" height="30" as="geometry" />
        </mxCell>
        <mxCell id="pSZyWVPSI68-gmUVEjRg-22" value="1 : 1" style="text;html=1;strokeColor=none;fillColor=none;align=center;verticalAlign=middle;whiteSpace=wrap;rounded=0;" vertex="1" parent="1">
          <mxGeometry x="130" y="340" width="60" height="30" as="geometry" />
        </mxCell>
        <mxCell id="pSZyWVPSI68-gmUVEjRg-23" value="" style="edgeStyle=orthogonalEdgeStyle;rounded=0;orthogonalLoop=1;jettySize=auto;html=1;entryX=0;entryY=0.5;entryDx=0;entryDy=0;endArrow=none;endFill=0;" edge="1" parent="1" source="pSZyWVPSI68-gmUVEjRg-1" target="pSZyWVPSI68-gmUVEjRg-5">
          <mxGeometry relative="1" as="geometry">
            <mxPoint x="470" y="360" as="sourcePoint" />
            <mxPoint x="700" y="360" as="targetPoint" />
          </mxGeometry>
        </mxCell>
        <mxCell id="pSZyWVPSI68-gmUVEjRg-5" value="Matriculado" style="rhombus;whiteSpace=wrap;html=1;fillColor=#fad7ac;strokeColor=#b46504;" vertex="1" parent="1">
          <mxGeometry x="550" y="320" width="80" height="80" as="geometry" />
        </mxCell>
        <mxCell id="pSZyWVPSI68-gmUVEjRg-24" value="1 : n" style="text;html=1;strokeColor=none;fillColor=none;align=center;verticalAlign=middle;whiteSpace=wrap;rounded=0;" vertex="1" parent="1">
          <mxGeometry x="490" y="340" width="60" height="30" as="geometry" />
        </mxCell>
        <mxCell id="pSZyWVPSI68-gmUVEjRg-26" value="n : m" style="text;html=1;strokeColor=none;fillColor=none;align=center;verticalAlign=middle;whiteSpace=wrap;rounded=0;" vertex="1" parent="1">
          <mxGeometry x="560" y="290" width="60" height="30" as="geometry" />
        </mxCell>
        <mxCell id="pSZyWVPSI68-gmUVEjRg-27" value="1 : n" style="text;html=1;strokeColor=none;fillColor=none;align=center;verticalAlign=middle;whiteSpace=wrap;rounded=0;" vertex="1" parent="1">
          <mxGeometry x="630" y="340" width="60" height="30" as="geometry" />
        </mxCell>
        <mxCell id="pSZyWVPSI68-gmUVEjRg-28" value="1 : n" style="text;html=1;strokeColor=none;fillColor=none;align=center;verticalAlign=middle;whiteSpace=wrap;rounded=0;" vertex="1" parent="1">
          <mxGeometry x="200" y="290" width="60" height="30" as="geometry" />
        </mxCell>
        <mxCell id="pSZyWVPSI68-gmUVEjRg-32" style="edgeStyle=orthogonalEdgeStyle;rounded=0;orthogonalLoop=1;jettySize=auto;html=1;entryX=1;entryY=0.5;entryDx=0;entryDy=0;endArrow=none;endFill=0;" edge="1" parent="1" source="pSZyWVPSI68-gmUVEjRg-31" target="pSZyWVPSI68-gmUVEjRg-3">
          <mxGeometry relative="1" as="geometry" />
        </mxCell>
        <mxCell id="pSZyWVPSI68-gmUVEjRg-34" style="edgeStyle=orthogonalEdgeStyle;rounded=0;orthogonalLoop=1;jettySize=auto;html=1;entryX=0.25;entryY=1;entryDx=0;entryDy=0;endArrow=none;endFill=0;" edge="1" parent="1" source="pSZyWVPSI68-gmUVEjRg-31" target="pSZyWVPSI68-gmUVEjRg-3">
          <mxGeometry relative="1" as="geometry">
            <Array as="points">
              <mxPoint x="740" y="485" />
              <mxPoint x="740" y="390" />
            </Array>
          </mxGeometry>
        </mxCell>
        <mxCell id="pSZyWVPSI68-gmUVEjRg-31" value="ser delegado" style="rhombus;whiteSpace=wrap;html=1;fillColor=#fad7ac;strokeColor=#b46504;" vertex="1" parent="1">
          <mxGeometry x="810" y="440" width="90" height="90" as="geometry" />
        </mxCell>
      </root>
    </mxGraphModel>
  </diagram>
</mxfile>
